<mxfile host="app.diagrams.net" agent="Mozilla/5.0 (Windows NT 10.0; Win64; x64) AppleWebKit/537.36 (KHTML, like Gecko) Chrome/135.0.0.0 Safari/537.36" version="24.8.6">
  <diagram name="Page-1" id="gFlSnbYP6rDgJUU2PK1t">
    <mxGraphModel dx="1562" dy="810" grid="1" gridSize="10" guides="1" tooltips="1" connect="1" arrows="1" fold="1" page="1" pageScale="1" pageWidth="850" pageHeight="1100" math="0" shadow="0">
      <root>
        <mxCell id="0" />
        <mxCell id="1" parent="0" />
        <mxCell id="O_W75GD_Cc4JGoWc3nd8-4" style="edgeStyle=orthogonalEdgeStyle;rounded=0;orthogonalLoop=1;jettySize=auto;html=1;entryX=0;entryY=0.5;entryDx=0;entryDy=0;" parent="1" source="O_W75GD_Cc4JGoWc3nd8-1" target="O_W75GD_Cc4JGoWc3nd8-3" edge="1">
          <mxGeometry relative="1" as="geometry" />
        </mxCell>
        <mxCell id="O_W75GD_Cc4JGoWc3nd8-1" value="MCU" style="rounded=0;whiteSpace=wrap;html=1;" parent="1" vertex="1">
          <mxGeometry x="150" y="190" width="310" height="220" as="geometry" />
        </mxCell>
        <mxCell id="O_W75GD_Cc4JGoWc3nd8-2" value="LCD" style="rounded=0;whiteSpace=wrap;html=1;" parent="1" vertex="1">
          <mxGeometry x="610" y="110" width="120" height="60" as="geometry" />
        </mxCell>
        <mxCell id="O_W75GD_Cc4JGoWc3nd8-5" style="edgeStyle=orthogonalEdgeStyle;rounded=0;orthogonalLoop=1;jettySize=auto;html=1;exitX=0.5;exitY=0;exitDx=0;exitDy=0;entryX=0.5;entryY=1;entryDx=0;entryDy=0;" parent="1" source="O_W75GD_Cc4JGoWc3nd8-3" target="O_W75GD_Cc4JGoWc3nd8-2" edge="1">
          <mxGeometry relative="1" as="geometry" />
        </mxCell>
        <mxCell id="O_W75GD_Cc4JGoWc3nd8-3" value="Shift Bit Register" style="rounded=0;whiteSpace=wrap;html=1;" parent="1" vertex="1">
          <mxGeometry x="530" y="250" width="160" height="100" as="geometry" />
        </mxCell>
        <mxCell id="O_W75GD_Cc4JGoWc3nd8-6" value="Button Matrix" style="rounded=0;whiteSpace=wrap;html=1;" parent="1" vertex="1">
          <mxGeometry x="260" y="500" width="190" height="130" as="geometry" />
        </mxCell>
        <mxCell id="O_W75GD_Cc4JGoWc3nd8-22" style="edgeStyle=orthogonalEdgeStyle;rounded=0;orthogonalLoop=1;jettySize=auto;html=1;exitX=0.5;exitY=1;exitDx=0;exitDy=0;entryX=0.5;entryY=0;entryDx=0;entryDy=0;" parent="1" source="O_W75GD_Cc4JGoWc3nd8-19" target="O_W75GD_Cc4JGoWc3nd8-6" edge="1">
          <mxGeometry relative="1" as="geometry" />
        </mxCell>
        <mxCell id="O_W75GD_Cc4JGoWc3nd8-19" value="7 GPIO" style="rounded=0;whiteSpace=wrap;html=1;" parent="1" vertex="1">
          <mxGeometry x="320" y="370" width="70" height="40" as="geometry" />
        </mxCell>
        <mxCell id="O_W75GD_Cc4JGoWc3nd8-21" style="edgeStyle=orthogonalEdgeStyle;rounded=0;orthogonalLoop=1;jettySize=auto;html=1;exitX=0.5;exitY=1;exitDx=0;exitDy=0;entryX=0;entryY=0.5;entryDx=0;entryDy=0;" parent="1" source="O_W75GD_Cc4JGoWc3nd8-20" target="O_W75GD_Cc4JGoWc3nd8-6" edge="1">
          <mxGeometry relative="1" as="geometry" />
        </mxCell>
        <mxCell id="O_W75GD_Cc4JGoWc3nd8-20" value="7 GPIO" style="rounded=0;whiteSpace=wrap;html=1;" parent="1" vertex="1">
          <mxGeometry x="180" y="370" width="70" height="40" as="geometry" />
        </mxCell>
        <mxCell id="O_W75GD_Cc4JGoWc3nd8-23" value="SPI" style="rounded=0;whiteSpace=wrap;html=1;" parent="1" vertex="1">
          <mxGeometry x="420" y="270" width="40" height="60" as="geometry" />
        </mxCell>
        <mxCell id="O_W75GD_Cc4JGoWc3nd8-25" style="edgeStyle=orthogonalEdgeStyle;rounded=0;orthogonalLoop=1;jettySize=auto;html=1;entryX=0.25;entryY=0;entryDx=0;entryDy=0;" parent="1" source="O_W75GD_Cc4JGoWc3nd8-24" target="O_W75GD_Cc4JGoWc3nd8-1" edge="1">
          <mxGeometry relative="1" as="geometry" />
        </mxCell>
        <mxCell id="O_W75GD_Cc4JGoWc3nd8-24" value="BATTERY" style="rounded=0;whiteSpace=wrap;html=1;" parent="1" vertex="1">
          <mxGeometry x="20" y="100" width="120" height="60" as="geometry" />
        </mxCell>
      </root>
    </mxGraphModel>
  </diagram>
</mxfile>
